<?xml version="1.0" encoding="UTF-8" standalone="no"?>
<svg
   xmlns:dc="http://purl.org/dc/elements/1.1/"
   xmlns:cc="http://creativecommons.org/ns#"
   xmlns:rdf="http://www.w3.org/1999/02/22-rdf-syntax-ns#"
   xmlns:svg="http://www.w3.org/2000/svg"
   xmlns="http://www.w3.org/2000/svg"
   width="27.393988mm"
   height="6.3504691mm"
   viewBox="0 0 27.393988 6.3504691"
   version="1.1"
   id="svg2349">
  <defs
     id="defs2343">
    <clipPath
       clipPathUnits="userSpaceOnUse"
       id="clipPath2092">
      <path
         d="M 0,0 H 148 V 77 H 0 Z"
         id="path2090" />
    </clipPath>
    <clipPath
       clipPathUnits="userSpaceOnUse"
       id="clipPath2096">
      <path
         d="M 0.90583801,0.87578201 H 147.90416 V 75.938755 H 0.90583801 Z"
         clip-rule="evenodd"
         id="path2094" />
    </clipPath>
  </defs>
  <metadata
     id="metadata2346">
    <rdf:RDF>
      <cc:Work
         rdf:about="">
        <dc:format>image/svg+xml</dc:format>
        <dc:type
           rdf:resource="http://purl.org/dc/dcmitype/StillImage" />
        <dc:title></dc:title>
      </cc:Work>
    </rdf:RDF>
  </metadata>
  <g
     id="layer1"
     transform="translate(-54.338717,-120.045)">
    <g
       id="g2086"
       transform="matrix(0.08466666,0,0,0.08466666,61.404765,119.97054)">
      <g
         id="g2088" />
      <g
         id="g2108">
        <g
           clip-path="url(#clipPath2092)"
           opacity="0.4078"
           id="g2106">
          <g
             id="g2104">
            <g
               clip-path="url(#clipPath2096)"
               id="g2102">
              <g
                 transform="matrix(0.2522552,0,0,0.25071132,-0.77966309,-90.60878)"
                 id="g2100">
                <path
                   d="m 538.67407,365.63907 c 0.58551,0.36743 1.28101,0.66186 1.53748,0.66235 0.25641,4.9e-4 0.65881,0.33093 0.91443,0.73438 0.32879,0.51355 0.84124,0.73434 1.83038,0.73617 1.31891,0.003 1.46527,0.11267 2.23163,1.65283 0.76636,1.57679 0.87616,1.65015 2.45148,1.6532 1.2456,0.002 1.61224,-0.14343 1.61303,-0.58313 8.6e-4,-0.43957 0.29376,-0.32922 1.24475,0.47864 0.69507,0.5509 1.35303,1.32141 1.49897,1.65137 0.14575,0.40332 0.62152,0.66064 1.1344,0.66162 0.6961,0.001 0.95208,0.22168 1.1336,1.10132 0.25391,1.35595 1.7536,2.64099 2.88953,2.49658 0.54968,-0.0721 1.13513,0.29529 1.86621,1.1759 0.58484,0.69715 1.57184,1.83484 2.22998,2.53211 0.6582,0.66064 1.27917,1.61438 1.38818,2.0907 0.10901,0.47656 0.43799,0.88012 0.73108,0.88073 0.29303,4.9e-4 0.51257,0.14759 0.51227,0.33069 -3.7e-4,0.18326 0.2923,0.4036 0.65851,0.47757 0.62243,0.18445 1.4989,1.68799 2.19085,3.85083 0.25489,0.84314 0.25348,1.57581 -0.005,2.38135 -0.40534,1.24487 -0.51575,1.5011 -1.83936,4.02649 -1.06622,2.01294 -2.97485,3.87781 -4.44092,4.24133 -1.79602,0.47278 -2.16442,1.53467 -1.95184,5.38171 0.10651,1.79541 0.32251,3.81064 0.43122,4.43369 0.18139,0.95288 -0.003,1.39221 -0.95716,2.45276 -0.6242,0.73157 -1.50476,1.42602 -1.90802,1.57165 -1.42962,0.43702 -2.78802,1.97315 -2.97388,3.36499 -0.74188,4.8711 -0.74224,5.05433 0.0609,6.59452 0.43805,0.84338 0.76599,1.76001 0.76544,2.0531 -5.5e-4,0.29309 0.29169,0.7699 0.65753,1.02698 0.95111,0.73461 1.64288,3.04382 1.16486,3.95886 -0.22058,0.40259 -0.62415,0.73157 -0.88062,0.73108 -0.29309,-4.9e-4 -0.69665,0.25512 -0.95361,0.54773 -0.25702,0.2926 -0.91693,0.54773 -1.46649,0.54675 -0.84259,-0.002 -1.06281,0.21777 -1.39478,1.42615 -0.25793,0.7688 -0.44311,1.83093 -0.44397,2.30713 -0.002,1.0625 -1.28766,2.85522 -2.02038,2.85376 -0.2931,-4.9e-4 -0.58735,0.6217 -0.73548,1.46411 -0.25915,1.42834 -1.54425,2.92798 -2.60663,2.92602 -0.84265,-0.002 -1.61413,1.13257 -1.61651,2.37818 -10e-4,0.69604 -0.18573,1.35522 -0.36908,1.46472 -0.22003,0.10949 -0.36731,0.5122 -0.36811,0.91516 -0.003,1.7952 -5.17144,3.10428 -8.06359,1.99966 -0.91529,-0.33142 -2.56299,-0.77404 -3.66175,-0.95935 -1.09869,-0.18518 -3.00293,-0.59195 -4.21136,-0.88736 -9.08124,-2.36169 -12.56116,-2.58813 -16.5206,-1.09363 -1.39316,0.51038 -3.04294,1.13001 -3.66617,1.38538 -2.1264,0.80191 -2.42035,1.241 -2.24133,3.47611 0.0711,1.13574 0.35925,3.73754 0.61175,5.82629 0.50574,3.77441 0.50574,3.77441 -0.52606,6.95972 -0.58948,1.75744 -1.43634,3.9906 -1.87793,5.0155 -0.44141,0.98828 -0.9574,2.59936 -1.06909,3.55163 -0.14832,0.95228 -0.40643,1.83109 -0.62647,1.94059 -0.18347,0.14612 -0.33129,0.84204 -0.33276,1.61133 -0.003,1.57531 -1.0332,3.91809 -2.17084,4.94165 -1.06421,0.95056 -0.9953,3.22204 0.13398,6.66796 0.51001,1.50293 0.91015,3.0058 0.90942,3.37214 -6.7e-4,0.36645 0.14502,0.80627 0.36444,1.02649 0.47543,0.47717 1.4501,8.13589 1.44376,11.46975 -0.006,3.00403 0.75274,8.79395 1.80578,13.77832 0.36292,1.7959 0.76184,3.95813 0.90686,4.76441 0.10834,0.80615 0.39911,2.05236 0.61762,2.74878 1.09228,3.5924 2.33142,7.00195 3.28003,9.09192 0.54706,1.28332 1.02105,2.49316 1.02069,2.67626 -3.7e-4,0.18323 0.14538,0.62305 0.32782,0.98975 1.3139,2.677 3.31759,8.65234 3.31527,9.86133 -7.9e-4,0.4397 0.14435,1.17261 0.3266,1.64929 0.69257,1.83301 1.92633,8.1001 2.53968,13.12036 0.28894,2.19861 1.44714,9.67444 2.20813,14.10877 0.6521,3.88476 1.44665,9.93103 1.44433,11.14001 -10e-4,0.65943 0.25135,2.71155 0.54084,4.58057 0.32629,1.8324 0.86938,5.24048 1.26806,7.54919 0.39856,2.3089 0.94116,6.01007 1.2666,8.24542 0.32556,2.19874 0.72394,4.61756 0.90583,5.35059 0.36377,1.3562 0.94488,4.03162 1.45263,6.74365 0.25379,1.4292 1.23572,5.2414 2.40027,9.34674 0.61871,2.1626 1.53009,4.54578 2.87994,7.55237 0.94855,2.08997 2.52131,3.44849 3.95008,3.45117 0.51288,9.8e-4 1.42798,0.44239 2.0498,0.95655 1.57282,1.32177 2.96442,1.61755 7.76367,1.62652 3.99323,0.008 7.65766,-0.42517 9.30744,-1.08154 4.39966,-1.75024 6.67139,-1.92914 8.42731,-0.57019 0.65844,0.51416 1.61004,1.02893 2.1593,1.17639 0.51269,0.11084 1.0617,0.36841 1.17126,0.55176 0.10956,0.18335 0.54889,0.33081 0.98853,0.33166 0.73272,10e-4 4.94311,1.43799 6.66345,2.24732 0.40259,0.18396 1.86743,0.51648 3.29584,0.70227 4.68823,0.59509 8.78967,1.51868 9.41131,2.10608 0.36579,0.33032 0.73102,0.91723 0.87671,1.35705 0.14575,0.40345 0.54737,1.13684 0.91284,1.61389 0.69434,0.91712 0.58307,1.64966 -0.44482,2.74671 -0.69751,0.76807 -5.20538,1.67541 -8.13629,1.70654 -1.46539,-0.003 -1.72205,0.10657 -1.72327,0.72937 -10e-4,0.58618 0.25507,0.73328 1.17096,0.73499 1.06244,0.002 4.06531,0.66711 6.73816,1.47827 0.62238,0.22082 1.64789,0.36938 2.27069,0.3706 0.84259,10e-4 1.31842,0.25879 1.75678,0.91907 0.58447,0.88025 0.5476,0.99024 -0.0397,1.64856 -1.43182,1.57263 -3.84991,1.67798 -18.13598,0.73511 -6.63019,-0.45215 -7.94916,-0.41809 -11.35761,0.30823 -4.61786,0.94384 -13.81451,1.54931 -20.66498,1.31652 -9.37811,-0.31091 -12.93029,-1.08703 -15.78344,-3.40039 -0.84131,-0.69763 -1.68287,-1.2854 -1.86603,-1.28576 -0.76923,-0.0381 -2.81641,-2.38672 -3.47284,-3.96326 -0.40125,-0.95319 -1.45929,-3.22662 -2.33521,-5.02338 -0.87579,-1.83349 -1.8244,-3.88696 -2.15277,-4.62024 -2.58972,-6.01306 -3.13653,-7.44287 -3.13574,-7.88244 4.9e-4,-0.25647 -0.25439,-1.09961 -0.58264,-1.86963 -0.32825,-0.77002 -0.72943,-1.72327 -0.87518,-2.12647 -0.1825,-0.40344 -0.54706,-1.31994 -0.83887,-2.0166 -0.29175,-0.69665 -0.80194,-2.12646 -1.12976,-3.11621 -0.32776,-1.02636 -0.76526,-2.16296 -0.9477,-2.56628 -0.18237,-0.4032 -0.72882,-2.05298 -1.27526,-3.6659 -0.50989,-1.61297 -1.0929,-3.26263 -1.27533,-3.66607 -0.18244,-0.40332 -0.83875,-2.0531 -1.49512,-3.66638 -1.5679,-3.9596 -5.72794,-12.65009 -6.05765,-12.6507 -0.1831,-0.037 -2.8938,-0.18872 -6.11743,-0.37793 -3.18698,-0.15259 -6.04446,-0.2312 -6.30106,-0.12183 -0.69659,0.25513 -0.66174,1.20777 0.10602,2.01526 0.5119,0.55042 0.51142,0.80689 0.14368,1.53894 -0.44104,0.76844 -0.77106,0.87781 -4.10516,1.05457 -3.11432,0.14075 -3.99341,0.0657 -6.44654,-0.70825 -2.59961,-0.81092 -3.11242,-0.84851 -5.78741,-0.52381 -6.33942,0.79407 -14.50781,0.0825 -17.94849,-1.53601 -2.34259,-1.10351 -5.92541,-5.10339 -7.75043,-8.6607 -2.33599,-4.58374 -9.95263,-25.84693 -9.94897,-27.78858 8.5e-4,-0.43957 -0.14478,-0.91613 -0.32764,-1.09973 -0.29242,-0.3302 -0.62005,-1.42981 -2.03943,-6.41492 -0.25476,-0.91638 -0.72711,-2.96899 -1.05377,-4.58154 -0.36328,-1.61267 -0.76269,-3.51843 -0.94458,-4.21496 -0.18182,-0.69642 -0.58136,-2.52894 -0.94488,-4.03162 -0.32685,-1.50269 -0.72699,-3.04205 -0.90943,-3.40888 -0.18255,-0.32995 -0.25195,-2.41833 -0.10132,-4.57946 0.18866,-2.89398 0.0825,-4.83588 -0.35223,-7.43781 -0.76129,-4.28784 -0.75946,-5.24035 -0.23645,-10.58813 0.52319,-5.45777 0.53021,-9.19458 -0.0105,-13.84839 l -0.43243,-3.81079 -1.83212,0.17956 c -1.02588,0.0713 -2.3819,0.3252 -2.96851,0.54395 -2.78613,0.98388 -7.11157,2.25793 -7.80762,2.25659 -0.43963,-7.3e-4 -0.84292,0.14502 -0.95315,0.328 -0.11023,0.18299 -0.95337,0.43787 -1.86945,0.54602 -0.87952,0.1449 -1.72259,0.39966 -1.83295,0.61927 -0.14691,0.18298 -0.62341,0.32861 -1.13629,0.32763 -0.47625,-9.7e-4 -1.17267,0.14447 -1.53936,0.32685 -0.91681,0.51123 -5.82782,1.49108 -7.40314,1.48803 -0.76935,-10e-4 -1.57587,0.25354 -1.83283,0.54615 -0.55078,0.65832 -4.17788,0.72473 -6.41153,0.1344 -3.11236,-0.84852 -3.84509,-0.84986 -3.84661,-0.0439 -8e-4,0.40295 0.25494,0.80652 0.54772,0.95361 0.29291,0.11048 0.54883,0.36731 0.54841,0.58716 -0.001,0.6228 2.30181,3.30164 2.81469,3.30261 0.25647,4.9e-4 0.47577,0.25733 0.47522,0.55042 -5.5e-4,0.29309 0.7301,1.39343 1.60733,2.4942 0.8772,1.06409 1.79059,2.38464 2.04615,2.86145 0.25549,0.47669 0.87664,1.35706 1.35174,1.98084 0.51184,0.58715 2.26538,3.19152 3.90912,5.75927 1.68042,2.53101 3.61682,5.35559 4.34784,6.23621 1.57172,1.90808 3.90979,5.39288 3.90906,5.79584 -3.1e-4,0.1466 0.21893,0.47668 0.51153,0.73376 0.73157,0.58753 2.22571,4.80328 2.76959,7.77191 0.68903,3.77478 -0.41564,6.74024 -4.08746,11.0929 -4.66327,5.55987 -8.14825,7.97113 -14.27026,10.04779 -5.53546,1.85785 -6.5249,2.00262 -19.09192,2.52826 -7.43756,0.31567 -12.97058,0.89148 -18.1015,1.87103 -2.52875,0.47144 -5.45978,0.57581 -21.25,0.72913 -14.58121,0.15564 -23.81571,1.38379 -34.776,4.69677 -1.06299,0.29114 -1.50263,0.29029 -1.57532,-0.003 -0.14569,-0.43982 -1.46497,-0.22253 -2.23541,0.36219 -0.22022,0.18274 -0.44165,1.06164 -0.44324,1.90429 -0.002,1.06238 -0.18628,1.6482 -0.55298,1.79407 -0.36664,0.14575 -0.5509,0.73169 -0.55298,1.83069 -0.002,0.91589 -0.2232,1.79468 -0.47992,1.9408 -0.22009,0.14611 -0.77112,0.95111 -1.17566,1.75628 -0.40448,0.8053 -1.10211,1.60999 -1.50549,1.82898 -1.50348,0.72986 -1.87085,1.27869 -2.31439,3.36609 -0.25867,1.13525 -0.81134,2.81946 -1.25269,3.7345 -0.91992,2.12317 -1.1889,8.7904 -0.46393,12.85827 0.29023,1.50245 0.57709,4.8003 0.68226,7.32837 0.0684,2.52796 0.35601,5.45935 0.57379,6.52222 0.32714,1.39282 0.32559,2.23541 0.031,3.04071 -0.22107,0.62244 -0.29553,1.28174 -0.18603,1.46509 0.10962,0.18335 0.0361,0.32983 -0.11048,0.32959 -0.18316,-3.7e-4 -0.58709,0.4751 -0.95453,1.06054 -0.91882,1.53699 -2.8258,2.59583 -4.62097,2.59253 -1.39215,-0.003 -1.9411,-0.29687 -5.08685,-2.90393 -1.93872,-1.57898 -3.80408,-3.19445 -4.13312,-3.5614 -0.98694,-1.17425 -3.03131,-4.98822 -3.79669,-7.11444 -0.43756,-1.09997 -1.75183,-3.52038 -2.99396,-5.35449 -1.24212,-1.83411 -2.48382,-3.92481 -2.77551,-4.65796 -0.32831,-0.7334 -1.24121,-2.31042 -2.08148,-3.55774 -0.84027,-1.24719 -1.82581,-3.15405 -2.22669,-4.29053 -0.36419,-1.13635 -0.83838,-2.23632 -1.02111,-2.45642 -0.6214,-0.77057 -3.6507,-6.85785 -4.08771,-8.21417 -0.21845,-0.73303 -0.91144,-2.34631 -1.53198,-3.5564 -0.58393,-1.21008 -2.36994,-6.04943 -3.93641,-10.74188 l -2.84137,-8.54138 1.79975,-2.41455 1.76306,-2.41467 11.14362,-3.42261 c 6.08505,-1.85694 12.16976,-3.56738 13.45242,-3.78467 4.58093,-0.79736 12.49246,0.17004 12.48984,1.56213 -4.9e-4,0.25647 0.25579,0.29358 0.62249,0.14783 0.91657,-0.36462 4.80188,-1.4198 11.65589,-3.09192 3.22546,-0.80005 6.45099,-1.63647 7.1474,-1.81836 0.69641,-0.18188 2.41909,-0.61816 3.84848,-0.90857 1.39276,-0.32714 2.89557,-0.72717 3.29889,-0.90966 0.40344,-0.21912 1.39312,-0.51038 2.19943,-0.69196 0.8064,-0.18176 4.10565,-1.27454 7.33166,-2.40417 12.64765,-4.40888 20.30817,-6.37275 27.45353,-7.09198 2.2351,-0.21558 4.1773,-0.50501 4.32403,-0.57801 0.84363,-0.51135 -0.54437,-2.71203 -1.71673,-2.71423 -0.25641,-4.9e-4 -0.73212,-0.33118 -1.09772,-0.73474 -0.36548,-0.44031 -1.4267,-1.10181 -2.30524,-1.46985 -0.9151,-0.40466 -2.7449,-1.47064 -4.06216,-2.35236 -1.31714,-0.88171 -3.65924,-2.2417 -5.15979,-3.05053 -1.50055,-0.80884 -3.65955,-2.13184 -4.7569,-3.01319 -1.09747,-0.8446 -2.4516,-1.61657 -3.00079,-1.76404 -0.5127,-0.11096 -1.57392,-0.73584 -2.34201,-1.43335 -0.73139,-0.69738 -1.68287,-1.24877 -2.0492,-1.24938 -0.76935,-10e-4 -5.13305,2.15173 -5.35376,2.62756 -0.0737,0.1831 -0.25702,0.2926 -0.40356,0.29224 -0.18317,-2.5e-4 -1.5036,0.80322 -3.00751,1.78955 -1.50385,0.9497 -3.08087,1.86254 -3.48413,2.00842 -0.43988,0.14563 -1.06348,0.54748 -1.4306,0.94983 -0.36713,0.40222 -0.844,0.73108 -1.06379,0.73059 -0.21991,0.0362 -1.06304,0.32776 -1.86981,0.72912 -2.16345,1.02186 -3.29895,0.94642 -4.21237,-0.37426 -0.43854,-0.58704 -1.06036,-1.10096 -1.39007,-1.10157 -0.54957,-10e-4 -4.14502,2.73987 -4.40265,3.36219 -0.0736,0.18286 -0.29364,0.29248 -0.44019,0.29223 -0.18317,-3.6e-4 -0.95361,0.58429 -1.7243,1.279 -0.77063,0.69458 -1.72449,1.38879 -2.12769,1.49804 -0.84314,0.29151 -4.14423,2.33679 -4.95166,3.10474 -0.84412,0.8042 -3.41156,2.37475 -4.328,2.66614 -0.43994,0.14575 -0.80683,0.43811 -0.80719,0.62121 -3.1e-4,0.18323 -0.18378,0.32935 -0.40363,0.32898 -0.21979,-4.9e-4 -0.58655,0.21875 -0.88,0.43799 -0.25696,0.25598 -0.91742,0.8042 -1.5044,1.20618 -0.55026,0.40185 -1.32077,0.98669 -1.65109,1.31567 -1.39471,1.35291 -3.81372,1.89783 -7.66003,1.7074 -2.0514,-0.11377 -3.88269,-0.37366 -4.13868,-0.63062 -0.21936,-0.22021 -0.95172,-0.40478 -1.61114,-0.406 -0.65942,-10e-4 -1.20874,-0.14881 -1.20837,-0.33203 2.4e-4,-0.14649 -0.9151,-0.40467 -2.0506,-0.51685 -1.1355,-0.11194 -2.27063,-0.40723 -2.45343,-0.59082 -0.21942,-0.22009 -0.732,-0.4043 -1.13501,-0.40503 -0.43958,-8.5e-4 -2.16049,-0.51697 -3.88114,-1.14307 -1.72073,-0.62591 -3.66122,-1.28912 -4.32028,-1.47357 -0.62237,-0.22095 -1.17139,-0.51513 -1.17102,-0.69824 3.7e-4,-0.21985 -0.29236,-0.36694 -0.69537,-0.36768 -0.36634,-7.3e-4 -0.87879,-0.25805 -1.13465,-0.55163 -0.25592,-0.29358 -0.76831,-0.55103 -1.1347,-0.55176 -0.36633,-6.1e-4 -0.76892,-0.18469 -0.87854,-0.36792 -0.47479,-0.77039 -2.78369,-0.33496 -5.09409,0.90625 -1.32019,0.69348 -2.78668,1.27698 -3.22632,1.27612 -0.47625,-8.5e-4 -1.17279,0.21753 -1.57629,0.50977 -0.4035,0.25574 -1.39343,0.6936 -2.19986,0.9483 -0.80652,0.25501 -1.64972,0.58313 -1.83319,0.72937 -0.22003,0.14612 -1.6131,0.61975 -3.11603,1.05652 -1.50299,0.47351 -3.26269,1.12952 -3.88617,1.49475 -0.62353,0.36511 -2.12658,0.91187 -3.29962,1.276 -1.20959,0.3274 -3.40936,1.16596 -4.91278,1.89582 -1.50342,0.69323 -3.41003,1.53222 -4.21655,1.82373 -0.80646,0.255 -2.30988,0.98486 -3.33667,1.53247 -0.99036,0.58423 -2.56696,1.27734 -3.48334,1.5321 -0.8797,0.25476 -1.94299,0.69238 -2.3465,0.948 -0.40338,0.25574 -0.95337,0.47461 -1.20977,0.47412 -0.25647,-4.9e-4 -1.17328,0.474 -2.017,1.05847 -3.30139,2.22852 -9.02069,4.41602 -11.62177,4.41114 -0.73272,-10e-4 -2.2351,0.14221 -3.33453,0.32336 -5.97357,1.05102 -13.48575,2.06262 -17.36978,2.38501 -3.18781,0.28711 -6.59626,1.01343 -11.36161,2.4331 -3.62884,1.05567 -11.58374,3.67835 -13.38031,4.40772 -3.37292,1.3125 -9.23837,3.27966 -10.63095,3.53351 -1.79571,0.28967 -5.79101,1.38135 -6.23114,1.63684 -0.36682,0.21911 -7.3302,1.63476 -9.71215,1.99658 -1.02613,0.14465 -2.67533,0.47119 -3.66501,0.72583 -1.02619,0.2179 -2.41901,0.58154 -3.1521,0.76343 -0.7331,0.18176 -2.01557,0.32593 -2.85816,0.32434 -0.84259,-0.002 -2.30847,0.21533 -3.26153,0.50659 -0.953,0.25464 -2.45594,0.69153 -3.37213,0.90955 -4.80164,1.23657 -8.320652,2.25573 -8.797459,2.54797 -0.330017,0.1825 -1.136474,0.43738 -1.832824,0.58264 -0.696351,0.14527 -1.612915,0.47315 -2.016419,0.76551 -0.403503,0.25573 -1.576538,0.65649 -2.566223,0.91101 -1.026184,0.21789 -2.419434,0.80151 -3.116455,1.27642 -0.6969,0.43836 -2.017029,1.09534 -2.933533,1.42334 -2.603027,0.98413 -6.159973,2.77259 -6.637329,3.32117 -0.220337,0.29273 -0.331421,0.87866 -0.22229,1.3186 0.145691,0.43982 0.07141,0.98926 -0.07544,1.17212 -0.183663,0.21949 -0.514832,0.98828 -0.736023,1.72046 -0.221131,0.7323 -0.7724,1.64704 -1.139344,1.97614 -0.403686,0.3656 -0.734558,0.95117 -0.735168,1.28088 -6.71e-4,0.36633 -0.258057,0.84204 -0.551636,1.09802 -0.293518,0.25586 -0.551208,0.9148 -0.552246,1.46436 -10e-4,0.54956 -0.332153,1.28162 -0.73584,1.64722 -0.403686,0.3656 -0.734314,0.8778 -0.734802,1.13427 -4.88e-4,0.25647 -0.441101,0.76856 -0.954712,1.13391 l -0.953857,0.69434 1.151245,11.17609 c 0.611206,6.11926 1.22406,11.39599 1.370056,11.68933 0.109375,0.29321 0.217834,1.02624 0.253296,1.64917 -0.0016,0.87927 0.29071,1.24609 1.535034,1.94446 0.878357,0.47802 1.573975,0.69909 1.574402,0.47937 0.0011,-0.58619 2.890076,2.20361 3.473999,3.41369 0.328552,0.58667 0.655701,1.94287 0.763672,2.96887 0.252685,1.97876 -0.152344,3.07703 -1.842163,5.49183 -0.404114,0.58545 -0.735108,1.28088 -0.662232,1.50085 0.108887,0.51306 -3.74469,4.16931 -4.440796,4.16797 -0.29309,-4.9e-4 -0.80664,0.32825 -1.173706,0.73059 -1.064575,1.17023 -4.07019,1.97052 -5.644714,1.52789 -0.7323,-0.22107 -2.014465,-0.29675 -2.8573,-0.18847 -1.832214,0.25293 -4.321716,-0.66761 -13.289734,-4.75104 -8.858154,-4.04675 -11.673584,-6.94629 -16.563598,-17.10352 -1.240723,-2.56701 -2.919068,-6.23364 -3.721375,-8.21344 -1.385803,-3.33654 -1.605041,-3.66662 -4.238586,-5.86975 -1.536255,-1.32177 -3.438477,-2.82751 -4.206665,-3.41504 -1.646363,-1.17553 -3.656739,-3.56054 -4.824951,-5.76092 -0.438111,-0.84351 -1.351075,-2.34729 -2.008667,-3.37439 -1.2784429,-2.01734 -1.788941,-3.26392 -2.8447271,-6.78296 l -0.6550293,-2.3092 2.1700439,-4.53882 c 2.4643555,-5.19763 3.5295415,-6.62439 6.1339115,-8.34131 2.420898,-1.6073 20.311828,-8.31445 22.473571,-8.45691 3.737305,-0.24939 11.248719,-0.82141 12.531189,-0.96558 0.732911,-0.1084 1.686158,-0.50964 2.126587,-0.91186 0.403687,-0.3656 1.54065,-1.05945 2.49408,-1.53394 0.953369,-0.43786 2.713501,-1.2771 3.886902,-1.86114 1.173462,-0.58386 2.346679,-1.05799 2.566467,-1.0575 0.25647,4.9e-4 1.650024,-0.72961 3.15387,-1.6427 1.613891,-1.02283 3.337097,-1.7522 4.289917,-1.89685 0.842773,-0.1084 1.575988,-0.36352 1.576355,-0.54663 3.05e-4,-0.14661 0.440551,-0.47546 0.990539,-0.73096 1.319885,-0.51025 5.646546,-2.48047 6.343323,-2.84546 3.007385,-1.71618 6.380798,-3.28515 6.966919,-3.28405 0.366394,7.3e-4 0.916443,-0.29126 1.173706,-0.69385 0.25708,-0.36585 1.027283,-0.80396 1.650269,-0.91284 0.659729,-0.14527 1.28302,-0.40052 1.393249,-0.5835 0.11023,-0.14636 1.540772,-1.09607 3.227844,-2.04541 1.65036,-0.94946 3.411164,-2.11853 3.924835,-2.55713 0.513794,-0.47534 1.650818,-1.16919 2.567505,-1.60718 1.466797,-0.69323 5.463987,-2.77392 7.517697,-3.90576 0.40339,-0.21899 2.20002,-1.0216 4.03321,-1.75085 1.79657,-0.76587 3.95981,-1.67774 4.76651,-2.0426 0.80658,-0.32825 2.85968,-1.09363 4.58252,-1.60328 1.7229,-0.54638 3.44586,-1.12915 3.84906,-1.27502 3.55627,-1.38538 7.84485,-2.54956 12.6459,-3.49304 6.26703,-1.23377 17.59067,-2.97095 21.25479,-3.25708 1.72211,-0.10657 3.37128,-0.43323 3.66486,-0.68909 0.3302,-0.25586 2.01599,-0.54578 4.03107,-0.61523 2.05181,-0.10596 3.99408,-0.43219 4.76403,-0.76044 2.12677,-0.98511 5.28086,-2.81091 6.05158,-3.50555 0.40362,-0.36561 1.13721,-0.80396 1.65033,-0.94947 0.51324,-0.14551 1.13666,-0.47412 1.43011,-0.69336 0.69715,-0.54821 4.25461,-2.55652 6.2714,-3.54187 0.91674,-0.43774 1.79712,-1.02234 1.94415,-1.27844 0.14709,-0.29285 0.51385,-0.51196 0.7337,-0.51147 0.43958,8.5e-4 3.74115,-2.33765 4.87894,-3.43464 0.2937,-0.3291 0.69714,-0.58471 0.88031,-0.58435 0.18317,3.7e-4 0.88019,-0.47461 1.54065,-1.02295 0.66052,-0.58496 1.76092,-1.27893 2.45752,-1.53405 0.69659,-0.29175 2.5307,-1.53394 4.03522,-2.81336 1.54107,-1.27929 3.0451,-2.30224 3.37481,-2.30163 0.32971,7.3e-4 0.88001,-0.40137 1.2107,-0.91358 0.36743,-0.58545 0.95422,-0.91406 1.50372,-0.91308 0.6228,10e-4 1.06299,-0.29102 1.3573,-0.91333 0.25757,-0.5857 0.69781,-0.91455 1.21069,-0.91358 0.47626,9.8e-4 1.02625,-0.25451 1.28327,-0.54712 0.25702,-0.2926 0.73379,-0.54821 1.10012,-0.54748 0.32972,6.1e-4 0.80677,-0.40137 1.02759,-0.91394 0.44129,-0.91504 0.698,-1.06104 2.16315,-0.91187 0.62274,0.038 0.953,-0.25454 1.35785,-1.24307 0.3681,-0.91516 0.77185,-1.31738 1.28473,-1.31641 0.43963,8.6e-4 0.76971,-0.18164 0.77008,-0.36486 3.6e-4,-0.21985 0.33038,-0.36573 0.69678,-0.36499 0.36633,7.3e-4 0.76977,-0.21839 0.88012,-0.47461 0.0738,-0.25635 1.10086,-0.9505 2.27436,-1.53449 1.1369,-0.62073 2.38409,-1.46081 2.75134,-1.93652 0.36725,-0.47547 1.0639,-0.80396 1.61346,-0.80298 0.51288,9.8e-4 0.95282,-0.14465 0.95313,-0.29114 2.4e-4,-0.14661 0.95385,-0.73096 2.12713,-1.2417 1.1734,-0.54724 2.60376,-1.3872 3.19092,-1.89905 0.62378,-0.51159 1.32068,-0.94995 1.57715,-0.94946 0.73267,10e-4 6.45584,-4.27411 9.1351,-6.83356 1.32123,-1.27969 2.82532,-2.33926 3.44843,-2.48477 0.95294,-0.21802 1.06317,-0.40088 1.06561,-1.6831 0.002,-1.24561 0.11255,-1.42859 0.8819,-1.42713 0.47625,8.6e-4 0.953,-0.25476 1.10009,-0.54748 0.11048,-0.29297 0.40409,-0.54871 0.66056,-0.54822 0.69604,0.001 4.29352,-3.80212 5.9469,-6.32678 0.80822,-1.1709 1.72613,-2.26819 2.12957,-2.48718 0.47675,-0.25562 0.66089,-0.76807 0.66291,-1.83057 0.003,-1.50208 0.44458,-2.63684 1.36224,-3.55106 0.25696,-0.25598 0.4776,-0.73193 0.47809,-0.98828 4.9e-4,-0.25647 0.40454,-0.8053 0.88153,-1.17065 0.47699,-0.40222 1.10168,-1.39014 1.35968,-2.23218 0.25806,-0.84216 0.66266,-1.7207 0.95618,-1.93994 0.25689,-0.21924 0.47766,-0.73181 0.47833,-1.09815 7.3e-4,-0.40307 0.14783,-0.6958 0.36767,-0.69531 0.18317,2.5e-4 0.36701,-0.32922 0.36774,-0.73218 8e-4,-0.40295 0.14795,-0.7323 0.33112,-0.73205 0.18316,3.6e-4 0.8446,-1.02429 1.46966,-2.23194 1.50775,-3.03796 3.27042,-5.23266 4.77408,-6.07251 1.90692,-0.98559 2.97119,-1.93606 2.97235,-2.55886 6.1e-4,-0.32972 0.69879,-1.46412 1.54346,-2.52491 1.32196,-1.64624 2.23914,-2.30395 5.79614,-4.0924 2.34686,-1.16773 5.46442,-3.03028 6.96851,-4.12659 3.48526,-2.55786 5.31863,-3.3971 9.90017,-4.52417 2.52912,-0.65454 3.00568,-0.80017 5.24231,-1.78503 0.76996,-0.3285 2.1626,-0.58216 3.15174,-0.58033 0.95251,0.002 1.86862,-0.10644 2.01547,-0.25256 0.11017,-0.14648 0.77014,-0.43823 1.42999,-0.65677 4.14264,-1.49426 5.90216,-2.00391 8.68708,-2.36499 1.68566,-0.21667 3.55487,-0.65271 4.10498,-0.9447 0.55004,-0.29212 1.64953,-0.50989 2.49218,-0.5083 0.80597,0.002 2.52851,-0.32483 3.77481,-0.68885 1.24634,-0.40063 2.8957,-0.80053 3.62867,-0.94567 0.76959,-0.1084 1.39294,-0.40027 1.39343,-0.65674 0.0371,-0.25647 0.36792,-0.84204 0.77185,-1.31751 0.58746,-0.73156 1.0274,-0.87732 2.49274,-0.80127 1.31872,0.0392 2.2351,-0.21557 3.73864,-1.01867 1.35694,-0.73023 2.78653,-1.1305 4.61863,-1.31031 2.16192,-0.21557 2.82177,-0.4342 3.77587,-1.27502 1.32105,-1.1698 3.33692,-1.64221 5.4245,-1.27197 1.20856,0.18554 1.61179,0.0762 2.52915,-0.69135 1.5412,-1.31592 2.86078,-1.71655 4.50897,-1.45691 0.80566,0.14807 1.72162,0.11328 2.08832,-0.0693 1.75992,-0.76606 4.61807,-1.09027 6.00949,-0.72126 1.09851,0.29517 1.72144,0.25965 2.63803,-0.10498 0.62329,-0.25525 2.63892,-0.61779 4.47107,-0.79748 3.84735,-0.35913 6.96231,-0.82947 9.52792,-1.41077 0.98957,-0.21802 2.60163,-0.28821 3.51734,-0.17663 1.24524,0.18566 2.60119,-0.0316 5.3136,-0.75916 2.41919,-0.69156 5.02111,-1.08975 7.84237,-1.26752 4.72647,-0.24756 10.51621,-0.93261 11.10306,-1.29785 0.18341,-0.10962 2.19885,-0.3623 4.43384,-0.50451 7.62128,-0.57178 17.84473,-1.72486 18.54156,-2.08985 0.33008,-0.18262 1.13648,-0.43738 1.83286,-0.58276 0.69641,-0.14514 1.46619,-0.40015 1.64966,-0.54639 0.66046,-0.54822 14.10653,-0.96252 17.03653,-0.51721 2.05102,0.297 6.18908,1.2207 7.1408,1.62537 1.75727,0.69946 3.36817,1.25207 4.32038,1.40026 0.54931,0.11109 1.09845,0.33179 1.20801,0.51526 0.10949,0.18347 0.73205,0.33106 1.35485,0.33228 1.13575,0.002 4.13825,0.85046 5.45581,1.51245 0.36609,0.18372 0.91529,0.33142 1.245,0.33203 0.32971,6.1e-4 1.06192,0.29504 1.64749,0.62586 0.87824,0.51464 1.17127,0.55188 1.94135,0.15026 0.47674,-0.25549 0.9541,-0.84082 1.06488,-1.28027 0.22168,-0.98877 0.99511,-3.1488 1.39966,-3.95386 0.18383,-0.36621 0.33148,-0.95202 0.33227,-1.35498 6.7e-4,-0.36633 0.25812,-0.87878 0.55164,-1.13476 0.29358,-0.25574 0.55084,-0.69495 0.55133,-0.95142 5.5e-4,-0.29312 0.14752,-0.5126 0.36731,-0.51224 0.18316,3.7e-4 0.36694,-0.29236 0.36773,-0.69531 6.7e-4,-0.36645 0.25806,-0.87878 0.55164,-1.13464 0.29358,-0.25598 0.55078,-0.65845 0.55133,-0.95154 9.2e-4,-0.47632 2.8324,-6.03955 3.27258,-6.36841 0.11011,-0.10974 0.55091,-0.73169 0.91858,-1.427 0.80866,-1.42737 1.54328,-2.41504 2.60764,-3.40228 0.40374,-0.40229 1.83508,-1.75507 3.19305,-3.07135 1.43134,-1.35279 2.93549,-2.44898 3.52185,-2.55787 0.58643,-0.10876 1.83356,-0.94909 2.82446,-1.86306 1.02747,-0.91394 2.60474,-1.93677 3.52137,-2.30139 0.95318,-0.36451 2.4198,-0.9845 3.2998,-1.38599 3.15326,-1.38611 3.59308,-1.49512 4.91156,-1.27295 0.73248,0.11145 1.68512,0.0398 2.12519,-0.17908 0.99011,-0.47448 5.53369,-0.90539 8.6109,-0.82629 2.12481,0.0771 2.38128,0.004 3.33587,-1.01953 0.95447,-1.02405 1.24762,-1.0968 3.15259,-1.0199 1.20886,0.0391 2.56378,0.33472 3.14929,0.70215 z M 468.7341,483.32712 c -0.22064,0.47571 -3.81641,3.36316 -4.21936,3.36242 -0.21985,-4.8e-4 -0.47681,0.2555 -0.62384,0.54834 -0.11047,0.29285 -0.44067,0.54871 -0.77039,0.5481 -0.29309,-6.1e-4 -0.84289,0.1449 -1.20959,0.32739 -0.33008,0.18262 -1.28342,0.62036 -2.09012,0.98523 -0.80676,0.40149 -1.54016,0.76648 -1.65027,0.8761 -0.11011,0.10974 -0.91687,0.51123 -1.83349,0.91248 -0.91669,0.40124 -1.79688,0.91247 -1.94391,1.1687 -0.14704,0.25622 -0.58704,0.4751 -0.95337,0.47436 -0.95252,-0.002 -2.60278,0.83777 -2.6037,1.35071 -4.9e-4,0.25647 -0.2207,0.47571 -0.51379,0.47522 -0.9159,-0.002 -1.06464,1.17029 -1.26258,8.97342 -0.12164,6.19116 -0.27124,7.80286 -0.71179,8.31494 -0.33044,0.36572 -0.47809,0.98816 -0.36908,1.4281 0.10919,0.4032 -0.11267,1.50171 -0.51739,2.38025 -0.58881,1.39111 -0.66352,2.16028 -0.44898,4.94495 0.10657,1.79541 0.35999,3.37121 0.54297,3.48144 0.14636,0.11023 0.29193,0.62329 0.29089,1.17285 -0.001,0.58619 0.25269,1.97889 0.54346,3.18848 0.4729,1.7959 0.54108,4.50708 0.44556,16.26703 -0.19144,23.73956 -0.12509,27.43976 0.52969,29.89557 0.32752,1.17309 0.58102,2.74884 0.57968,3.44488 -0.001,0.69617 0.14319,1.75879 0.3252,2.38196 0.21863,0.62317 0.58136,2.52893 0.9079,4.25147 0.76074,4.50756 1.01635,4.98437 3.10253,6.05066 1.75684,0.88256 2.08649,0.9198 8.57093,0.93212 4.98242,0.009 6.99713,0.15979 7.80237,0.52771 0.58563,0.29419 2.85626,0.70142 5.09063,0.92554 9.12043,0.96973 15.67722,1.49512 15.97061,1.31238 0.44007,-0.25562 0.40699,-2.12415 0.005,-2.56445 -0.36579,-0.33045 -0.69397,-1.13709 -2.55213,-6.56263 -0.65594,-1.833 -1.31204,-3.62939 -1.49441,-4.03271 -0.54718,-1.2832 -2.18506,-6.92835 -2.1839,-7.55115 0.002,-1.09894 -1.745,-7.14715 -2.87537,-9.97027 -0.61981,-1.57642 -1.1297,-3.15271 -1.12909,-3.48243 6.7e-4,-0.36633 -0.14502,-0.80639 -0.32782,-1.02649 -0.14618,-0.18347 -0.583,-1.64978 -0.90973,-3.26232 -0.32666,-1.61255 -0.76281,-3.44519 -0.94488,-4.03162 -0.91003,-3.07922 -1.12341,-6.48669 -0.74432,-13.22687 0.37994,-7.21667 0.20239,-10.18445 -0.85303,-13.88659 -0.61859,-2.23597 -0.98163,-3.99512 -1.74283,-8.31952 -0.25397,-1.31934 -0.54468,-2.56556 -0.7276,-2.71253 -0.14624,-0.14673 -0.25494,-0.76977 -0.25378,-1.39258 0.005,-2.89428 -1.80268,-15.39041 -3.25452,-22.57376 -0.18146,-0.91614 -0.54437,-2.74865 -0.79816,-4.14123 -0.3623,-2.16223 -0.50824,-2.45557 -1.2409,-2.45691 -0.43964,-8.6e-4 -0.87952,0.10815 -0.95319,0.29126 z"
                   style="fill:#ffffff;fill-opacity:1;fill-rule:nonzero;stroke:none"
                   id="path2098" />
              </g>
            </g>
          </g>
        </g>
      </g>
    </g>
    <g
       id="g2312"
       transform="matrix(0.01945088,0,0,0.01945088,51.896204,120.38356)">
      <text
         transform="translate(107.875,188)"
         style="font-variant:normal;font-weight:normal;font-size:180.33px;font-family:RacingSansOne;-inkscape-font-specification:RacingSansOne-Regular;writing-mode:lr-tb;fill:#ffffff;fill-opacity:1;fill-rule:nonzero;stroke:none"
         id="text2316"><tspan
           x="0 88.541107 141.37724 212.06587 317.73816 416.37762 504.19742 592.01721 762.24695 865.93561 953.03406 1061.0507 1164.7394 1270.2313 1340.9199"
           y="0"
           id="tspan2314">FitnessWorkouts</tspan></text>
    </g>
  </g>
</svg>
