<?xml version="1.0" standalone="no"?>
<!DOCTYPE svg PUBLIC "-//W3C//DTD SVG 20010904//EN"
 "http://www.w3.org/TR/2001/REC-SVG-20010904/DTD/svg10.dtd">
<svg version="1.0" xmlns="http://www.w3.org/2000/svg"
 width="1500.000000pt" height="500.000000pt" viewBox="0 0 1500.000000 500.000000"
 preserveAspectRatio="xMidYMid meet">

<g transform="translate(0.000000,500.000000) scale(0.100000,-0.100000)"
fill="#000000" stroke="none">
<path d="M8345 4476 c-207 -75 -341 -289 -306 -489 25 -144 109 -251 250 -320
84 -41 88 -42 186 -41 83 1 111 6 164 27 147 61 209 121 267 260 33 79 39 102
38 162 -1 109 -37 197 -112 277 -120 129 -328 182 -487 124z"/>
<path d="M6755 3520 c-349 -8 -785 -24 -1100 -40 -104 -5 -265 -12 -358 -16
-92 -4 -170 -10 -173 -15 -3 -5 9 -9 26 -9 17 0 63 -6 103 -14 87 -17 217 -40
312 -55 267 -43 341 -54 430 -66 122 -17 275 -39 415 -60 58 -8 157 -23 220
-31 179 -24 254 -35 635 -89 173 -25 175 -25 175 -33 0 -23 -157 -151 -289
-237 -178 -116 -476 -255 -681 -320 -47 -15 -103 -33 -125 -41 -144 -50 -730
-197 -1195 -299 -41 -10 -88 -21 -105 -26 -16 -4 -55 -13 -85 -18 -30 -6 -86
-18 -125 -26 -38 -9 -90 -20 -115 -25 -25 -5 -110 -23 -190 -40 -176 -37 -486
-99 -875 -175 -159 -31 -303 -63 -320 -71 -27 -13 -19 -14 95 -9 69 3 366 10
660 15 294 6 733 15 975 22 637 17 1944 17 2060 0 286 -42 552 -139 694 -253
206 -167 169 -356 -119 -600 -98 -84 -166 -133 -390 -284 -234 -157 -413 -285
-407 -292 4 -3 169 53 267 92 19 7 112 44 205 81 163 64 223 89 292 120 17 8
34 14 37 14 13 0 250 122 330 169 344 204 514 352 595 521 21 45 26 69 26 135
0 70 -4 89 -32 146 -39 79 -136 188 -210 235 -48 30 -231 122 -333 166 -46 20
-136 51 -230 78 -41 12 -85 25 -98 31 -13 5 -32 9 -42 9 -40 0 -17 27 78 90
259 173 422 321 582 530 49 63 97 124 108 135 15 16 63 30 213 59 334 65 576
113 819 162 129 25 264 52 300 59 36 7 191 38 345 70 154 32 307 63 340 70
115 23 244 59 240 66 -3 3 -130 9 -282 13 -281 6 -547 14 -1373 42 -533 17
-1852 26 -2325 14z"/>
<path d="M9312 2161 c-29 -10 -67 -31 -83 -47 -72 -68 -88 -147 -89 -431 l0
-183 -95 0 -95 0 0 -70 0 -70 95 0 95 0 0 -410 0 -410 80 0 80 0 0 410 0 410
125 0 125 0 0 70 0 70 -125 0 -125 0 0 230 c0 257 5 279 61 299 18 6 67 11
110 11 l79 0 0 70 0 70 -92 0 c-63 -1 -110 -7 -146 -19z"/>
<path d="M720 1285 l0 -745 165 0 165 0 0 300 0 300 255 0 255 0 0 145 0 145
-255 0 -255 0 0 150 0 150 265 0 265 0 0 150 0 150 -430 0 -430 0 0 -745z"/>
<path d="M1816 2015 c-49 -17 -102 -69 -117 -113 -48 -145 81 -289 224 -251
119 31 178 154 128 264 -22 50 -69 91 -119 105 -48 13 -68 12 -116 -5z"/>
<path d="M2290 1690 l0 -179 -87 -3 -88 -3 -3 -127 -3 -128 91 0 90 0 0 -355
0 -355 160 0 160 0 0 355 0 355 90 0 91 0 -3 128 -3 127 -87 3 -88 3 0 179 0
180 -160 0 -160 0 0 -180z"/>
<path d="M3393 1520 c-68 -14 -128 -45 -177 -90 l-46 -43 0 62 0 61 -162 -2
-163 -3 -3 -482 -2 -483 165 0 165 0 0 250 c0 139 5 271 11 299 12 58 56 123
102 151 42 26 112 26 155 0 59 -36 62 -56 62 -395 l0 -305 166 0 165 0 -3 343
c-3 321 -5 346 -26 408 -12 36 -36 85 -52 108 -34 46 -105 96 -160 111 -54 15
-150 20 -197 10z"/>
<path d="M4342 1519 c-197 -30 -360 -152 -423 -318 -27 -70 -36 -213 -20 -293
49 -236 265 -388 551 -388 252 0 451 134 508 343 l10 37 -169 0 c-150 0 -169
-2 -169 -16 0 -29 -38 -79 -77 -101 -81 -45 -167 -39 -236 18 -40 33 -77 105
-77 149 l0 30 369 0 370 0 3 33 c22 225 -140 440 -372 495 -69 17 -198 22
-268 11z m224 -230 c43 -20 82 -70 99 -126 l6 -23 -216 0 -217 0 7 28 c31 128
187 187 321 121z"/>
<path d="M5374 1520 c-125 -17 -204 -49 -262 -104 -97 -91 -109 -256 -24 -342
48 -48 137 -81 307 -115 172 -33 234 -58 249 -100 25 -71 -25 -109 -141 -109
-111 1 -166 35 -183 115 l-6 30 -163 3 -163 3 6 -48 c16 -115 99 -225 210
-277 150 -71 451 -75 607 -8 94 41 168 137 170 222 0 35 1 34 21 -19 30 -74
105 -154 181 -190 97 -47 207 -65 362 -58 145 6 210 21 288 65 92 52 137 130
137 243 0 87 -24 141 -86 198 -61 56 -122 82 -243 106 -45 8 -118 22 -163 31
-93 17 -128 35 -128 65 0 54 53 89 137 89 63 0 113 -27 136 -73 l19 -37 154 0
154 0 0 28 c0 40 -43 124 -84 166 -83 83 -203 119 -391 119 -190 0 -308 -35
-386 -115 -96 -99 -92 -278 8 -354 52 -39 116 -61 284 -94 162 -32 231 -57
248 -88 18 -34 13 -67 -15 -93 -23 -22 -34 -24 -123 -24 -91 0 -100 2 -134 28
-27 20 -40 40 -48 72 l-11 45 -158 0 -157 0 -29 57 c-54 106 -136 148 -379
193 -165 31 -202 43 -211 73 -16 50 49 97 133 97 65 0 114 -26 136 -72 l19
-38 160 0 160 0 -7 33 c-29 130 -126 222 -276 261 -73 18 -237 27 -315 16z"/>
<path d="M9990 1516 c-180 -38 -343 -203 -381 -384 -16 -79 -6 -213 21 -284
63 -168 227 -295 407 -317 161 -19 306 30 419 143 199 199 197 505 -3 705
-128 127 -289 175 -463 137z m234 -162 c130 -46 226 -185 226 -329 0 -97 -30
-167 -104 -241 -82 -82 -148 -108 -261 -102 -137 7 -237 73 -297 195 -28 57
-33 77 -33 142 0 103 24 167 87 237 101 110 242 146 382 98z"/>
<path d="M12123 1511 c-63 -21 -115 -60 -154 -114 l-29 -40 0 77 0 77 -77 -3
-78 -3 0 -480 0 -480 75 0 75 0 5 291 5 292 40 78 c30 60 52 87 90 116 116 88
260 64 314 -52 13 -29 17 -90 21 -380 l5 -345 75 0 75 0 1 327 2 328 31 48
c53 83 125 125 217 125 84 0 124 -25 161 -101 l28 -57 3 -338 4 -338 71 3 72
3 3 319 c1 185 -2 343 -8 375 -13 75 -66 176 -109 212 -70 57 -117 74 -216 74
-75 0 -98 -4 -139 -24 -50 -25 -107 -75 -142 -124 l-20 -29 -29 46 c-71 113
-235 165 -372 117z"/>
<path d="M13670 1519 c-113 -22 -259 -123 -322 -224 -53 -84 -71 -152 -72
-265 -1 -87 3 -116 23 -172 56 -154 201 -283 359 -319 69 -15 200 -12 262 7
112 33 240 136 289 232 l21 42 -85 0 -85 0 -42 -42 c-24 -22 -68 -53 -98 -67
-47 -22 -68 -26 -150 -26 -85 0 -101 3 -149 29 -75 39 -145 113 -170 181 -12
31 -21 58 -21 60 0 3 191 5 425 5 l425 0 0 53 c0 140 -53 268 -150 366 -121
121 -292 173 -460 140z m242 -176 c67 -29 149 -110 178 -175 38 -84 62 -78
-315 -78 -381 0 -356 -7 -310 86 88 177 270 244 447 167z"/>
<path d="M11060 1507 c-44 -14 -109 -79 -138 -137 l-22 -45 0 88 0 87 -75 0
-75 0 0 -480 0 -480 75 0 75 0 0 254 c0 285 6 334 52 426 58 115 159 159 251
110 l37 -20 0 99 c0 94 -1 99 -22 105 -35 9 -119 5 -158 -7z"/>
<path d="M1717 1503 c-4 -3 -7 -222 -7 -485 l0 -478 165 0 165 0 0 485 0 485
-158 0 c-87 0 -162 -3 -165 -7z"/>
</g>
</svg>
